<svg width="80" height="58" viewBox="0 0 80 58" fill="none" xmlns="http://www.w3.org/2000/svg">
<g filter="url(#filter0_d_1207_1468)">
<rect x="5.5" y="5.5" width="69" height="47" rx="5.5" fill="white" stroke="#E4DCD1"/>
<path fill-rule="evenodd" clip-rule="evenodd" d="M21.6924 22.8659C22.6325 22.9452 23.5726 22.3901 24.1601 21.6863C24.7379 20.9627 25.1198 19.9913 25.0219 19C24.1895 19.0397 23.1613 19.5551 22.5737 20.2787C22.0352 20.9032 21.5749 21.9143 21.6924 22.8659ZM32.8755 35.6333V20.1796H38.6041C41.5615 20.1796 43.6277 22.2414 43.6277 25.2548C43.6277 28.2683 41.5223 30.3499 38.5258 30.3499H35.2453V35.6333H32.8755ZM25.012 23.0542C24.1838 23.006 23.4281 23.3064 22.8177 23.549C22.4249 23.7051 22.0923 23.8373 21.8392 23.8373C21.5552 23.8373 21.2089 23.6981 20.82 23.5417L20.82 23.5417L20.82 23.5417L20.82 23.5417C20.3104 23.3368 19.7278 23.1025 19.1169 23.1137C17.7166 23.1335 16.4142 23.9365 15.6993 25.2152C14.2304 27.7726 15.3174 31.5593 16.7373 33.6409C17.4326 34.6718 18.265 35.8018 19.3617 35.7622C19.8442 35.7438 20.1913 35.5947 20.5505 35.4404C20.9641 35.2628 21.3937 35.0782 22.0645 35.0782C22.712 35.0782 23.1228 35.2579 23.5172 35.4305C23.8921 35.5945 24.2522 35.752 24.7868 35.7424C25.9227 35.7225 26.6376 34.7115 27.3328 33.6806C28.0831 32.5741 28.4129 31.4943 28.4629 31.3304L28.4688 31.3114C28.4676 31.3102 28.4583 31.3059 28.4419 31.2984C28.1911 31.1821 26.274 30.2937 26.2557 27.9114C26.2372 25.9118 27.7762 24.8987 28.0185 24.7392C28.0332 24.7295 28.0432 24.723 28.0477 24.7196C27.0684 23.2525 25.5408 23.0939 25.012 23.0542ZM47.9561 35.7523C49.4445 35.7523 50.8253 34.989 51.452 33.7797H51.501V35.6333H53.6945V27.9412C53.6945 25.7108 51.9318 24.2735 49.2193 24.2735C46.7026 24.2735 44.842 25.7307 44.7735 27.733H46.9083C47.0845 26.7814 47.9561 26.1569 49.1508 26.1569C50.6 26.1569 51.4128 26.8409 51.4128 28.0998V28.9522L48.4555 29.1307C45.7038 29.2992 44.2153 30.4391 44.2153 32.4217C44.2153 34.424 45.7527 35.7523 47.9561 35.7523ZM48.5924 33.9185C47.3292 33.9185 46.5262 33.3039 46.5262 32.3622C46.5262 31.3908 47.2998 30.8257 48.7785 30.7365L51.4127 30.568V31.4403C51.4127 32.8876 50.1984 33.9185 48.5924 33.9185ZM60.9702 36.238C60.0204 38.9442 58.9334 39.8363 56.6224 39.8363C56.4461 39.8363 55.8585 39.8165 55.7214 39.7768V37.9232C55.8683 37.943 56.2307 37.9628 56.4167 37.9628C57.4645 37.9628 58.0521 37.5167 58.4144 36.357L58.6298 35.673L54.6149 24.4222H57.0924L59.8833 33.5517H59.9322L62.7231 24.4222H65.1321L60.9702 36.238ZM35.2451 22.2018H37.9772C40.0336 22.2018 41.2087 23.312 41.2087 25.2648C41.2087 27.2175 40.0336 28.3377 37.9674 28.3377H35.2451V22.2018Z" fill="black"/>
</g>
<defs>
<filter id="filter0_d_1207_1468" x="0" y="0" width="80" height="58" filterUnits="userSpaceOnUse" color-interpolation-filters="sRGB">
<feFlood flood-opacity="0" result="BackgroundImageFix"/>
<feColorMatrix in="SourceAlpha" type="matrix" values="0 0 0 0 0 0 0 0 0 0 0 0 0 0 0 0 0 0 127 0" result="hardAlpha"/>
<feOffset/>
<feGaussianBlur stdDeviation="2.5"/>
<feComposite in2="hardAlpha" operator="out"/>
<feColorMatrix type="matrix" values="0 0 0 0 0 0 0 0 0 0 0 0 0 0 0 0 0 0 0.25 0"/>
<feBlend mode="normal" in2="BackgroundImageFix" result="effect1_dropShadow_1207_1468"/>
<feBlend mode="normal" in="SourceGraphic" in2="effect1_dropShadow_1207_1468" result="shape"/>
</filter>
</defs>
</svg>
