<svg width="80" height="58" viewBox="0 0 80 58" fill="none" xmlns="http://www.w3.org/2000/svg">
<g filter="url(#filter0_d_1207_1406)">
<rect x="5" y="5" width="70" height="48" rx="6" fill="white"/>
<rect x="5.5" y="5.5" width="69" height="47" rx="5.5" stroke="#E4DCD1"/>
</g>
<path d="M59.9941 33.6378H60.0293L62.9482 26.3116H65L58.6934 41.0001H56.7471L59.0918 35.8615L54.9531 26.3116H57.0049L59.9941 33.6378ZM50.123 25.9786C51.5181 25.9786 52.6208 26.3592 53.4297 27.1085C54.2384 27.8578 54.6367 28.9047 54.6367 30.2247V36.5157H52.8311V35.1007H52.749C51.9636 36.2662 50.9321 36.8488 49.6309 36.8488C48.529 36.8487 47.5911 36.5157 46.8525 35.8497C46.1259 35.2313 45.7159 34.3158 45.7393 33.3527C45.7393 32.2942 46.1375 31.4615 46.9229 30.8312C47.7082 30.2009 48.7633 29.8918 50.0762 29.8917C51.2014 29.8917 52.116 30.1056 52.8428 30.5099V30.0695C52.8427 29.4155 52.5616 28.7974 52.0693 28.3693C51.5652 27.9173 50.9202 27.6671 50.252 27.6671C49.1971 27.6672 48.3644 28.1198 47.7549 29.0236L46.0908 27.965C46.9817 26.6449 48.3296 25.9787 50.123 25.9786ZM41.1787 21.6017C42.386 21.5779 43.5583 22.0414 44.4141 22.8976C46.1256 24.5151 46.2311 27.2391 44.625 28.9874L44.4141 29.2013C43.5348 30.0457 42.4565 30.4737 41.1787 30.4738H38.0605V36.5157H36.1729V21.6017H41.1787ZM50.3701 31.4376C49.6081 31.4376 48.9631 31.6276 48.4473 31.9962C47.9432 32.3649 47.6856 32.8289 47.6855 33.3878C47.6855 33.8873 47.9197 34.3514 48.3066 34.6368C48.7287 34.9699 49.2448 35.1487 49.7725 35.1368C50.5697 35.1368 51.3318 34.8151 51.8945 34.2443C52.5159 33.6496 52.832 32.9475 52.832 32.1388C52.2458 31.6633 51.4251 31.4257 50.3701 31.4376ZM38.0605 28.6427H41.2266C41.9299 28.6664 42.6102 28.3806 43.0908 27.8693C44.0753 26.8346 44.0518 25.17 43.0322 24.171C42.5516 23.6954 41.9065 23.4328 41.2266 23.4327H38.0605V28.6427Z" fill="#3C4043"/>
<path d="M31.544 29.1659C31.544 28.5831 31.4971 28.0003 31.4034 27.4294H23.4434V30.7239H28.0037C27.8161 31.7825 27.2065 32.734 26.3155 33.3286V35.4695H29.0353C30.6296 33.9828 31.544 31.7825 31.544 29.1659Z" fill="#4285F4"/>
<path d="M23.4442 37.539C25.7185 37.539 27.6411 36.7778 29.0361 35.4695L26.3164 33.3287C25.5544 33.852 24.5814 34.1493 23.4442 34.1493C21.2403 34.1493 19.3763 32.6388 18.7081 30.6169H15.9062V32.8291C17.3365 35.7193 20.2555 37.539 23.4442 37.539Z" fill="#34A853"/>
<path d="M18.708 30.6169C18.3563 29.5584 18.3563 28.4048 18.708 27.3343V25.134H15.9058C14.6981 27.5484 14.6981 30.4029 15.9058 32.8172L18.708 30.6169Z" fill="#FBBC04"/>
<path d="M23.4442 23.8019C24.6517 23.7781 25.8123 24.242 26.6798 25.0864L29.0948 22.6363C27.559 21.1853 25.5427 20.3885 23.4442 20.4123C20.2555 20.4123 17.3365 22.2439 15.9062 25.134L18.7081 27.3462C19.3763 25.3124 21.2403 23.8019 23.4442 23.8019Z" fill="#EA4335"/>
<defs>
<filter id="filter0_d_1207_1406" x="0" y="0" width="80" height="58" filterUnits="userSpaceOnUse" color-interpolation-filters="sRGB">
<feFlood flood-opacity="0" result="BackgroundImageFix"/>
<feColorMatrix in="SourceAlpha" type="matrix" values="0 0 0 0 0 0 0 0 0 0 0 0 0 0 0 0 0 0 127 0" result="hardAlpha"/>
<feOffset/>
<feGaussianBlur stdDeviation="2.5"/>
<feComposite in2="hardAlpha" operator="out"/>
<feColorMatrix type="matrix" values="0 0 0 0 0 0 0 0 0 0 0 0 0 0 0 0 0 0 0.25 0"/>
<feBlend mode="normal" in2="BackgroundImageFix" result="effect1_dropShadow_1207_1406"/>
<feBlend mode="normal" in="SourceGraphic" in2="effect1_dropShadow_1207_1406" result="shape"/>
</filter>
</defs>
</svg>
