<svg width="80" height="58" viewBox="0 0 80 58" fill="none" xmlns="http://www.w3.org/2000/svg">
<g filter="url(#filter0_d_1207_1504)">
<rect x="5" y="5" width="70" height="48" rx="6" fill="white"/>
<rect x="5.5" y="5.5" width="69" height="47" rx="5.5" stroke="#E4DCD1"/>
</g>
<path d="M49.3525 15C56.8897 15 62.9998 21.181 63 28.8057C63 36.4305 56.8898 42.6123 49.3525 42.6123C45.9742 42.6123 42.8832 41.3694 40.5 39.3125C38.1168 41.3694 35.0258 42.6123 31.6475 42.6123C24.1102 42.6123 18 36.4305 18 28.8057C18.0002 21.181 24.1103 15 31.6475 15C35.0254 15 38.1169 16.2413 40.5 18.2979C42.8831 16.2413 45.9746 15 49.3525 15Z" fill="#ED0006"/>
<path d="M49.3525 15C56.8897 15 62.9998 21.181 63 28.8057C63 36.4305 56.8898 42.6123 49.3525 42.6123C45.9742 42.6123 42.8832 41.3694 40.5 39.3125C43.434 36.7802 45.2949 33.013 45.2949 28.8057C45.2948 24.5981 43.4344 20.8301 40.5 18.2979C42.8831 16.2413 45.9746 15 49.3525 15Z" fill="#F9A000"/>
<path d="M40.5 18.2981C43.4344 20.8304 45.2949 24.5983 45.2949 28.8059C45.2949 33.0133 43.4341 36.7805 40.5 39.3127C37.566 36.7805 35.7051 33.0132 35.7051 28.8059C35.7051 24.5983 37.5657 20.8304 40.5 18.2981Z" fill="#FF5E00"/>
<defs>
<filter id="filter0_d_1207_1504" x="0" y="0" width="80" height="58" filterUnits="userSpaceOnUse" color-interpolation-filters="sRGB">
<feFlood flood-opacity="0" result="BackgroundImageFix"/>
<feColorMatrix in="SourceAlpha" type="matrix" values="0 0 0 0 0 0 0 0 0 0 0 0 0 0 0 0 0 0 127 0" result="hardAlpha"/>
<feOffset/>
<feGaussianBlur stdDeviation="2.5"/>
<feComposite in2="hardAlpha" operator="out"/>
<feColorMatrix type="matrix" values="0 0 0 0 0 0 0 0 0 0 0 0 0 0 0 0 0 0 0.25 0"/>
<feBlend mode="normal" in2="BackgroundImageFix" result="effect1_dropShadow_1207_1504"/>
<feBlend mode="normal" in="SourceGraphic" in2="effect1_dropShadow_1207_1504" result="shape"/>
</filter>
</defs>
</svg>
