<svg width="80" height="58" viewBox="0 0 80 58" fill="none" xmlns="http://www.w3.org/2000/svg">
<g filter="url(#filter0_d_1207_1487)">
<rect x="5" y="5" width="70" height="48" rx="6" fill="white"/>
<rect x="5.5" y="5.5" width="69" height="47" rx="5.5" stroke="#E4DCD1"/>
</g>
<path fill-rule="evenodd" clip-rule="evenodd" d="M24.8 35.4819H21.6888C21.4759 35.4819 21.2948 35.6367 21.2616 35.8468L20.0033 43.8249C19.9783 43.9824 20.1002 44.1243 20.2599 44.1243H21.7452C21.9581 44.1243 22.1392 43.9695 22.1724 43.759L22.5118 41.6072C22.5445 41.3965 22.726 41.2419 22.9385 41.2419H23.9234C25.9729 41.2419 27.1556 40.2502 27.4647 38.2849C27.6038 37.4251 27.4705 36.7495 27.0678 36.2762C26.6257 35.7569 25.8413 35.4819 24.8 35.4819ZM25.159 38.3958C24.9889 39.5123 24.1358 39.5123 23.3111 39.5123H22.8416L23.1709 37.4272C23.1905 37.3013 23.2997 37.2085 23.4271 37.2085H23.6422C24.2041 37.2085 24.7341 37.2085 25.008 37.5287C25.1712 37.7198 25.2213 38.0036 25.159 38.3958ZM34.1002 38.36H32.6103C32.4834 38.36 32.3737 38.4529 32.3541 38.579L32.2882 38.9956L32.184 38.8447C31.8615 38.3765 31.1423 38.22 30.4244 38.22C28.7779 38.22 27.3718 39.467 27.0979 41.2163C26.9556 42.0887 27.1579 42.923 27.6529 43.5049C28.107 44.0398 28.7567 44.2628 29.5295 44.2628C30.856 44.2628 31.5918 43.4097 31.5918 43.4097L31.5253 43.8238C31.5002 43.9822 31.6221 44.1241 31.7809 44.1241H33.123C33.3365 44.1241 33.5165 43.9693 33.5501 43.7588L34.3554 38.6594C34.3809 38.5026 34.2594 38.36 34.1002 38.36ZM32.0234 41.2598C31.8796 42.111 31.204 42.6824 30.3426 42.6824C29.9099 42.6824 29.564 42.5436 29.3421 42.2807C29.1219 42.0196 29.0381 41.6478 29.1082 41.2339C29.2425 40.3899 29.9295 39.8 30.7779 39.8C31.2009 39.8 31.5449 39.9405 31.7714 40.2057C31.9983 40.4737 32.0885 40.8476 32.0234 41.2598ZM40.5379 38.3598H42.0352C42.2449 38.3598 42.3672 38.595 42.2481 38.767L37.2685 45.9548C37.1878 46.0712 37.055 46.1405 36.9131 46.1405H35.4177C35.2072 46.1405 35.0842 45.9034 35.2061 45.731L36.7567 43.5424L35.1076 38.7028C35.0506 38.5346 35.1748 38.3598 35.3537 38.3598H36.8249C37.016 38.3598 37.1847 38.4853 37.2398 38.6683L38.115 41.5912L40.1801 38.5495C40.2609 38.4308 40.3952 38.3598 40.5379 38.3598Z" fill="#253B80"/>
<path fill-rule="evenodd" clip-rule="evenodd" d="M56.7713 43.8248L58.0481 35.7008C58.0677 35.5747 58.177 35.4819 58.3039 35.4814H59.7414C59.9001 35.4814 60.022 35.6238 59.997 35.7812L58.7378 43.7589C58.705 43.9695 58.5239 44.1242 58.3106 44.1242H57.0269C56.8681 44.1242 56.7462 43.9823 56.7713 43.8248ZM46.9925 35.4819H43.8807C43.6683 35.4819 43.4872 35.6366 43.454 35.8467L42.1957 43.8248C42.1706 43.9823 42.2925 44.1242 42.4514 44.1242H44.0481C44.1965 44.1242 44.3235 44.016 44.3466 43.8686L44.7037 41.6071C44.7365 41.3964 44.918 41.2419 45.1304 41.2419H46.1148C48.1647 41.2419 49.3473 40.2501 49.6565 38.2848C49.7961 37.425 49.662 36.7494 49.2595 36.2762C48.8176 35.7568 48.0338 35.4819 46.9925 35.4819ZM47.3515 38.3958C47.1818 39.5122 46.3287 39.5122 45.5035 39.5122H45.0344L45.3643 37.4271C45.3839 37.3012 45.4921 37.2084 45.6199 37.2084H45.835C46.3965 37.2084 46.927 37.2084 47.2007 37.5286C47.3641 37.7198 47.4138 38.0036 47.3515 38.3958ZM56.2919 38.36H54.8031C54.6751 38.36 54.5664 38.4528 54.5473 38.5789L54.4814 38.9956L54.3767 38.8446C54.0542 38.3764 53.3355 38.22 52.6176 38.22C50.971 38.22 49.5654 39.4669 49.2915 41.2162C49.1496 42.0886 49.351 42.9229 49.846 43.5048C50.3009 44.0398 50.9498 44.2627 51.7226 44.2627C53.0492 44.2627 53.7847 43.4097 53.7847 43.4097L53.7184 43.8238C53.6934 43.9821 53.8153 44.124 53.9751 44.124H55.3165C55.529 44.124 55.71 43.9693 55.7433 43.7587L56.549 38.6593C56.5736 38.5025 56.4517 38.36 56.2919 38.36ZM54.2153 41.2598C54.0723 42.1109 53.3959 42.6823 52.5342 42.6823C52.1024 42.6823 51.7559 42.5436 51.5338 42.2806C51.3136 42.0196 51.2308 41.6478 51.3001 41.2339C51.435 40.3899 52.1212 39.8 52.9696 39.8C53.3927 39.8 53.7365 39.9404 53.9633 40.2057C54.1911 40.4737 54.2812 40.8476 54.2153 41.2598Z" fill="#179BD7"/>
<path d="M36.3143 32.6277L36.6968 30.1983L35.8448 30.1785H31.7764L34.6037 12.2508C34.6124 12.1967 34.641 12.1462 34.6827 12.1104C34.7244 12.0746 34.7778 12.0548 34.8334 12.0548H41.6934C43.9709 12.0548 45.5425 12.5287 46.3631 13.4641C46.7478 13.9029 46.9928 14.3615 47.1114 14.8661C47.2356 15.3956 47.2379 16.0282 47.1164 16.7998L47.1076 16.8561V17.3505L47.4924 17.5685C47.8164 17.7403 48.0737 17.9371 48.2711 18.1623C48.6004 18.5375 48.8133 19.0144 48.9031 19.5797C48.996 20.1611 48.9653 20.853 48.8133 21.6363C48.6377 22.5373 48.3539 23.322 47.9707 23.9642C47.6181 24.5558 47.169 25.0465 46.636 25.4269C46.1269 25.7881 45.5221 26.0625 44.8383 26.238C44.1756 26.4105 43.4202 26.4976 42.5915 26.4976H42.0577C41.676 26.4976 41.305 26.6351 41.0141 26.8816C40.7223 27.1332 40.529 27.4768 40.4699 27.8528L40.4297 28.0715L39.7539 32.3534L39.7231 32.5107C39.7151 32.5606 39.7012 32.5854 39.6808 32.6023C39.6625 32.6174 39.6362 32.6277 39.6105 32.6277H36.3143Z" fill="#253B80"/>
<path d="M47.8567 16.9135C47.8363 17.0444 47.813 17.1782 47.7866 17.3157C46.8818 21.9605 43.7868 23.5651 39.8338 23.5651H37.8211C37.3378 23.5651 36.9304 23.9161 36.855 24.393L35.8245 30.9284L35.5327 32.7809C35.4837 33.0939 35.7251 33.3762 36.0409 33.3762H39.6108C40.0336 33.3762 40.3925 33.0691 40.459 32.6522L40.4942 32.4707L41.1664 28.2055L41.2096 27.9716C41.2753 27.5533 41.635 27.2461 42.0578 27.2461H42.5917C46.0502 27.2461 48.7578 25.8419 49.5492 21.7784C49.8797 20.0809 49.7085 18.6636 48.8338 17.6667C48.5692 17.3661 48.2407 17.1168 47.8567 16.9135Z" fill="#179BD7"/>
<path d="M46.9099 16.5364C46.7718 16.4962 46.629 16.4596 46.4827 16.4267C46.3358 16.3945 46.185 16.366 46.0301 16.3411C45.4874 16.2534 44.8928 16.2117 44.2558 16.2117H38.8789C38.7465 16.2117 38.6208 16.2416 38.5082 16.2958C38.2602 16.415 38.076 16.6498 38.0313 16.9372L36.8873 24.182L36.8545 24.3933C36.9299 23.9165 37.3372 23.5654 37.8206 23.5654H39.8332C43.7863 23.5654 46.8815 21.9601 47.7861 17.316C47.813 17.1785 47.8358 17.0447 47.8562 16.9138C47.6274 16.7924 47.3794 16.6885 47.1124 16.6C47.0467 16.5781 46.9787 16.5569 46.9099 16.5364Z" fill="#222D65"/>
<path d="M38.0311 16.937C38.0758 16.6495 38.2602 16.4148 38.508 16.2963C38.6215 16.2422 38.7465 16.2122 38.8787 16.2122H44.2558C44.8928 16.2122 45.4874 16.2539 46.0299 16.3416C46.185 16.3665 46.3358 16.395 46.4827 16.4272C46.629 16.4601 46.7716 16.4967 46.9099 16.5369C46.9785 16.5574 47.0465 16.5786 47.1131 16.5998C47.38 16.6883 47.628 16.7929 47.8568 16.9136C48.1261 15.1971 47.8547 14.0284 46.9267 12.9701C45.9036 11.8051 44.0568 11.3063 41.6939 11.3063H34.8337C34.3509 11.3063 33.9393 11.6573 33.8646 12.1349L31.0073 30.2468C30.9509 30.6052 31.2273 30.9285 31.5886 30.9285H35.824L36.8873 24.1817L38.0311 16.937Z" fill="#253B80"/>
<defs>
<filter id="filter0_d_1207_1487" x="0" y="0" width="80" height="58" filterUnits="userSpaceOnUse" color-interpolation-filters="sRGB">
<feFlood flood-opacity="0" result="BackgroundImageFix"/>
<feColorMatrix in="SourceAlpha" type="matrix" values="0 0 0 0 0 0 0 0 0 0 0 0 0 0 0 0 0 0 127 0" result="hardAlpha"/>
<feOffset/>
<feGaussianBlur stdDeviation="2.5"/>
<feComposite in2="hardAlpha" operator="out"/>
<feColorMatrix type="matrix" values="0 0 0 0 0 0 0 0 0 0 0 0 0 0 0 0 0 0 0.25 0"/>
<feBlend mode="normal" in2="BackgroundImageFix" result="effect1_dropShadow_1207_1487"/>
<feBlend mode="normal" in="SourceGraphic" in2="effect1_dropShadow_1207_1487" result="shape"/>
</filter>
</defs>
</svg>
