<svg width="80" height="58" viewBox="0 0 80 58" fill="none" xmlns="http://www.w3.org/2000/svg">
<g filter="url(#filter0_d_1207_1441)">
<rect x="5" y="5" width="70" height="48" rx="6" fill="white"/>
<rect x="5.5" y="5.5" width="69" height="47" rx="5.5" stroke="#E4DCD1"/>
</g>
<path d="M50.0059 22.8809C52.4849 22.881 54.8227 25.1138 54.8369 29.2119C54.8369 33.6918 52.5271 35.7266 49.9912 35.7266C48.7451 35.7265 47.9943 35.2043 47.4844 34.8369L47.4697 38.8359L43.9277 39.585V23.1064H47.0449L47.2285 23.9834C47.7243 23.5312 48.6175 22.8809 50.0059 22.8809ZM19.7881 22.8809C20.9639 22.8809 22.1259 23.0649 23.3018 23.5312V26.8516C22.2251 26.2722 20.8647 25.9473 19.7881 25.9473C19.0374 25.9473 18.584 26.1598 18.584 26.7109C18.5848 28.2933 23.9819 27.5448 23.9961 31.7559C23.996 34.2854 21.97 35.7412 19.0234 35.7412C17.8052 35.7412 16.4736 35.5007 15.1562 34.9355V31.5723C16.3462 32.2222 17.8478 32.7021 19.0234 32.7021C19.8166 32.7021 20.3826 32.4906 20.3828 31.8408C20.3828 30.1591 15 30.7803 15 26.8799C15.0001 24.3787 16.9125 22.8809 19.7881 22.8809ZM28.1465 23.1211H30.8379V26.1309H28.1465V31.1484C28.1468 33.2389 30.3837 32.5902 30.8379 32.4062V35.2744C30.3704 35.5287 29.5207 35.7412 28.3594 35.7412C26.2628 35.7412 24.6896 34.2007 24.6895 32.1094L24.7041 20.7891L28.1611 20.0547L28.1465 23.1211ZM60.8857 22.8809C64.2432 22.8809 66 25.7357 66 29.3535C66 29.6928 65.9717 30.4277 65.9717 30.6113H59.0439C59.1999 32.2785 60.4181 32.7587 61.792 32.7588C63.1945 32.7588 64.3003 32.4619 65.2637 31.9814V34.8086C64.3003 35.3456 63.0247 35.7266 61.3389 35.7266C57.8824 35.7265 55.4737 33.5787 55.4736 29.3252C55.4736 25.7357 57.5141 22.8809 60.8857 22.8809ZM35.2441 24.167C36.0797 22.6412 37.7366 22.9515 38.1904 23.1211V26.3711C37.7507 26.2157 36.3345 26.0187 35.499 27.1064V35.4863H31.958V23.1211H35.0176L35.2441 24.167ZM42.6104 35.4863H39.0547V23.1211H42.6104V35.4863ZM49.1553 26.0186C48.3479 26.0186 47.838 26.3012 47.4697 26.7109L47.4834 31.9531C47.8234 32.3205 48.3196 32.6181 49.1553 32.6182C50.4586 32.6182 51.3369 31.2042 51.3369 29.3105C51.3368 27.4594 50.4444 26.0186 49.1553 26.0186ZM60.8711 25.75C59.9787 25.7502 59.002 26.4141 59.002 28.0107H62.6562C62.6562 26.4138 61.7353 25.75 60.8711 25.75ZM42.6104 21.2842L39.0547 22.0469V19.1641L42.6104 18.415V21.2842Z" fill="#6461FC"/>
<defs>
<filter id="filter0_d_1207_1441" x="0" y="0" width="80" height="58" filterUnits="userSpaceOnUse" color-interpolation-filters="sRGB">
<feFlood flood-opacity="0" result="BackgroundImageFix"/>
<feColorMatrix in="SourceAlpha" type="matrix" values="0 0 0 0 0 0 0 0 0 0 0 0 0 0 0 0 0 0 127 0" result="hardAlpha"/>
<feOffset/>
<feGaussianBlur stdDeviation="2.5"/>
<feComposite in2="hardAlpha" operator="out"/>
<feColorMatrix type="matrix" values="0 0 0 0 0 0 0 0 0 0 0 0 0 0 0 0 0 0 0.25 0"/>
<feBlend mode="normal" in2="BackgroundImageFix" result="effect1_dropShadow_1207_1441"/>
<feBlend mode="normal" in="SourceGraphic" in2="effect1_dropShadow_1207_1441" result="shape"/>
</filter>
</defs>
</svg>
