<svg width="80" height="58" viewBox="0 0 80 58" fill="none" xmlns="http://www.w3.org/2000/svg">
<g filter="url(#filter0_d_2225_1366)">
<rect x="5" y="5" width="70" height="48" rx="6" fill="white"/>
<rect x="5.5" y="5.5" width="69" height="47" rx="5.5" stroke="#E4DCD1"/>
</g>
<path d="M61.2627 24.8256L60.7119 27.1693L59.877 30.7015C59.801 30.9962 59.7534 31.2719 59.7344 31.5277C59.7154 31.7838 59.7467 32.0045 59.8291 32.1898C59.9113 32.3754 60.0535 32.5192 60.2559 32.6215C60.4582 32.7241 60.7372 32.7758 61.0918 32.7758C61.3955 32.7758 61.6899 32.7464 61.9746 32.6888C62.1262 32.6581 62.2792 32.6191 62.4326 32.5756L62.6523 31.639H62.6494L64.249 24.8314H67L66.6377 26.3734C66.6399 26.3744 66.6422 26.3752 66.6445 26.3763L64.7412 34.4681C64.5564 35.2781 64.3133 35.9788 64.0117 36.5707C63.7098 37.1621 63.3334 37.6548 62.8838 38.0472C62.4342 38.4396 61.8956 38.7321 61.2676 38.9252C60.6393 39.1182 59.906 39.2152 59.0684 39.2152C58.62 39.2152 58.2138 39.1899 57.8477 39.142L58.3896 36.8392C58.6666 36.878 58.9722 36.8978 59.3086 36.8978C60.0968 36.8978 60.6912 36.7198 61.0918 36.3646C61.4919 36.0097 61.7411 35.5551 61.8643 34.9945L61.8662 34.9896C61.8488 34.994 61.8313 34.9982 61.8135 35.0023C61.3703 35.1048 60.8449 35.1566 60.2373 35.1566C59.3642 35.1566 58.6868 35.0251 58.2061 34.7631C57.7248 34.5008 57.383 34.1414 57.1807 33.6869C56.9782 33.2329 56.8894 32.7111 56.915 32.1224C56.9402 31.5338 57.0289 30.9129 57.1807 30.2601L58.4531 24.8256H61.2627ZM42.1436 24.8324C42.8387 24.8324 43.4376 24.9394 43.9404 25.1527C44.4435 25.3664 44.8566 25.6583 45.1797 26.0287C45.5022 26.3992 45.7411 26.8328 45.8965 27.3285C46.0514 27.8248 46.1289 28.3554 46.1289 28.9203C46.1289 29.8371 45.9806 30.6754 45.6826 31.4349C45.3847 32.195 44.971 32.8514 44.4434 33.4037C43.9154 33.9564 43.2823 34.3861 42.5439 34.6937C41.805 35.0012 41.0001 35.1556 40.1309 35.1556C39.7087 35.1556 39.2862 35.1178 38.8643 35.0424L38.0264 38.4525H35.2695L38.4697 24.8324C38.9356 24.8321 41.3985 24.8324 42.1436 24.8324ZM26.8838 35.1586H24.1338L26.5615 24.8256H29.3125L26.8838 35.1586ZM33.748 24.8285H36.9004L36.3301 27.1713H33.1982L32.3623 30.7035C32.2863 30.9981 32.2388 31.2738 32.2197 31.5297C32.2009 31.7857 32.2329 32.0064 32.3154 32.1918C32.3976 32.3774 32.5394 32.5221 32.7422 32.6244C32.9443 32.7269 33.223 32.7777 33.5771 32.7777C33.8808 32.7777 34.1753 32.7483 34.46 32.6908C34.6462 32.6532 34.8398 32.6087 35.0322 32.5424L34.459 34.9662C34.4139 34.9772 34.3444 34.9937 34.2988 35.0043C33.8558 35.1066 33.3309 35.1586 32.7236 35.1586C31.8502 35.1586 31.1722 35.0272 30.6914 34.765C30.2105 34.5029 29.8693 34.1441 29.667 33.6898C29.4644 33.2356 29.3758 32.7134 29.4014 32.1244C29.4266 31.5359 29.5152 30.9148 29.667 30.2621L31.5273 22.3129L34.4697 21.8519L33.748 24.8285ZM18.9414 25.183C19.1882 25.0706 19.4217 24.9898 19.6689 24.9271C19.9156 24.8648 20.1809 24.8334 20.4648 24.8334C21.0577 24.8334 21.5704 24.9395 22.0029 25.1517C22.435 25.3641 22.793 25.6519 23.0771 26.014C23.3609 26.3764 23.571 26.8004 23.707 27.2875C23.8428 27.7746 23.9111 28.2997 23.9111 28.8617C23.9111 29.7233 23.7533 30.5381 23.4385 31.306C23.1235 32.0741 22.6946 32.7426 22.1514 33.3109C21.6078 33.8793 20.9655 34.3288 20.2246 34.6595C19.4838 34.9904 18.6806 35.1566 17.8164 35.1566C17.7053 35.1566 17.5103 35.1529 17.2324 35.1469C16.9546 35.1403 16.6363 35.1127 16.2783 35.0629C15.9202 35.0128 15.5407 34.9372 15.1396 34.8373C14.7381 34.7375 14.3581 34.6002 14 34.4252L17.2051 20.8051L20.0762 20.3558L18.9414 25.183ZM55.4619 30.6469C55.289 31.358 55.2395 32.0722 55.3135 32.7894C55.3877 33.5071 55.6593 34.6064 55.9238 35.1566H53.2617C52.9366 34.6004 52.9512 34.3393 52.8896 34.1644C52.5442 34.4516 52.1614 34.6883 51.7422 34.8754C51.3227 35.0624 50.8541 35.1566 50.3359 35.1566C49.7191 35.1566 49.1916 35.0466 48.7539 34.8285C48.3159 34.6103 47.9581 34.3175 47.6807 33.9496C47.4031 33.5819 47.2021 33.1513 47.0791 32.6586C46.9555 32.1658 46.8945 31.6379 46.8945 31.0765C46.8946 30.2158 47.0452 29.4047 47.3477 28.6439C47.6498 27.8831 48.0699 27.2184 48.6064 26.6508C49.1432 26.0829 50.438 24.8314 52.5625 24.8314H56.8301L55.4619 30.6469ZM39.3672 32.7816C39.5783 32.832 39.8398 32.8568 40.1504 32.8568C40.6345 32.8568 41.0751 32.7664 41.4727 32.5844C41.8699 32.4024 42.2079 32.1474 42.4873 31.8207C42.7667 31.4943 42.9842 31.1025 43.1396 30.6439C43.2947 30.1856 43.3721 29.6801 43.3721 29.1273C43.3721 28.5875 43.2543 28.129 43.0186 27.7523C42.7825 27.3755 42.3688 27.1746 41.7852 27.1722C41.3771 27.1707 40.6992 27.1713 40.6992 27.1713L39.3672 32.7816ZM19.7334 27.1713C19.5604 27.1713 19.3813 27.188 19.1035 27.2504C18.8258 27.313 18.5863 27.4425 18.3643 27.642L17.1562 32.7816C17.5132 32.8448 17.637 32.8519 17.7236 32.8519H18.0566C18.4887 32.8519 18.8965 32.7459 19.2793 32.5336C19.662 32.3213 19.9926 32.0369 20.2705 31.681C20.5482 31.325 20.7681 30.9225 20.9287 30.473C21.089 30.0235 21.1689 29.5549 21.1689 29.0677C21.1689 28.4684 21.0704 27.9995 20.873 27.6625C20.6753 27.3251 20.2641 27.1713 19.7334 27.1713ZM53.5088 27.1713C52.2262 27.1713 51.9806 27.171 51.4551 27.4467C51.0822 27.6422 50.7731 27.9367 50.502 28.2797C50.2307 28.6227 50.0182 29.0184 49.8643 29.4672C49.7098 29.9165 49.6328 30.3849 49.6328 30.8715C49.6329 31.47 49.7312 31.9443 49.9287 32.2933C50.1257 32.6427 50.4901 32.8168 51.0205 32.8168C51.304 32.8168 51.5598 32.761 51.7881 32.6488C52.0162 32.5366 52.2605 32.3492 52.5195 32.0873C52.5442 31.7757 52.5841 31.4482 52.6396 31.1049C52.6951 30.762 52.7653 30.4439 52.8271 30.1566L53.5088 27.1713ZM29.5977 23.6312H26.8467L27.2686 21.8363H30.0195L29.5977 23.6312Z" fill="#002855"/>
<defs>
<filter id="filter0_d_2225_1366" x="0" y="0" width="80" height="58" filterUnits="userSpaceOnUse" color-interpolation-filters="sRGB">
<feFlood flood-opacity="0" result="BackgroundImageFix"/>
<feColorMatrix in="SourceAlpha" type="matrix" values="0 0 0 0 0 0 0 0 0 0 0 0 0 0 0 0 0 0 127 0" result="hardAlpha"/>
<feOffset/>
<feGaussianBlur stdDeviation="2.5"/>
<feComposite in2="hardAlpha" operator="out"/>
<feColorMatrix type="matrix" values="0 0 0 0 0 0 0 0 0 0 0 0 0 0 0 0 0 0 0.25 0"/>
<feBlend mode="normal" in2="BackgroundImageFix" result="effect1_dropShadow_2225_1366"/>
<feBlend mode="normal" in="SourceGraphic" in2="effect1_dropShadow_2225_1366" result="shape"/>
</filter>
</defs>
</svg>
