<svg width="20" height="20" viewBox="0 0 20 20" fill="none" xmlns="http://www.w3.org/2000/svg">
<path d="M12.49 3.61921C12.6773 3.57617 12.8732 3.59251 13.0508 3.66594C13.2283 3.73937 13.3786 3.86626 13.4807 4.02899L14.4002 5.49698C14.4743 5.61521 14.5742 5.71514 14.6925 5.78928L16.1604 6.70874C16.3235 6.8108 16.4507 6.96115 16.5243 7.13889C16.5979 7.31662 16.6143 7.51288 16.5712 7.70035L16.1826 9.38756C16.1513 9.52392 16.1513 9.66561 16.1826 9.80197L16.5712 11.4901C16.6139 11.6773 16.5973 11.8732 16.5237 12.0505C16.4501 12.2279 16.3232 12.3779 16.1604 12.4799L14.6925 13.4003C14.5742 13.4744 14.4743 13.5743 14.4002 13.6926L13.4807 15.1605C13.3787 15.3234 13.2285 15.4505 13.0509 15.5241C12.8734 15.5977 12.6773 15.6142 12.49 15.5713L10.8019 15.1827C10.6658 15.1515 10.5245 15.1515 10.3884 15.1827L8.70025 15.5713C8.51292 15.6142 8.31686 15.5977 8.13931 15.5241C7.96177 15.4505 7.81157 15.3234 7.70956 15.1605L6.79011 13.6926C6.71571 13.5742 6.61545 13.4743 6.49688 13.4003L5.02981 12.4808C4.86692 12.3788 4.73984 12.2286 4.66624 12.051C4.59264 11.8735 4.57616 11.6774 4.61911 11.4901L5.00669 9.80197C5.03803 9.66561 5.03803 9.52392 5.00669 9.38756L4.61818 7.70035C4.57512 7.51278 4.59163 7.31645 4.66541 7.13871C4.73919 6.96097 4.86658 6.81067 5.02981 6.70874L6.49688 5.78928C6.61545 5.71525 6.71571 5.61532 6.79011 5.49698L7.70956 4.02899C7.81164 3.86644 7.96175 3.73967 8.13909 3.66624C8.31643 3.59282 8.51222 3.57638 8.69933 3.61921L10.3884 4.00679C10.5245 4.03799 10.6658 4.03799 10.8019 4.00679L12.49 3.61921Z" stroke="#A3A3A3"/>
<path d="M8.29614 10.0904L10.1785 11.8932L12.8934 7.2959" stroke="#A3A3A3" stroke-linecap="round" stroke-linejoin="round"/>
</svg>
