<svg width="42" height="42" viewBox="0 0 42 42" fill="none" xmlns="http://www.w3.org/2000/svg">
<path d="M26.02 36.426V27.7531C26.02 27.2931 25.8373 26.8519 25.512 26.5266C25.1867 26.2013 24.7455 26.0186 24.2854 26.0186H17.3472C16.8871 26.0186 16.4459 26.2013 16.1207 26.5266C15.7954 26.8519 15.6126 27.2931 15.6126 27.7531V36.426" stroke="#B89A7E" stroke-width="3.46914" stroke-linecap="round" stroke-linejoin="round"/>
<path d="M30.8356 17.8834C30.4741 17.5373 29.9928 17.3441 29.4922 17.3441C28.9917 17.3441 28.5104 17.5373 28.1488 17.8834C27.3422 18.6527 26.2704 19.0819 25.1558 19.0819C24.0412 19.0819 22.9694 18.6527 22.1628 17.8834C21.8013 17.5378 21.3204 17.3449 20.8203 17.3449C20.3201 17.3449 19.8392 17.5378 19.4777 17.8834C18.6711 18.6533 17.5989 19.0828 16.4838 19.0828C15.3688 19.0828 14.2966 18.6533 13.49 17.8834C13.1284 17.5373 12.6471 17.3441 12.1465 17.3441C11.646 17.3441 11.1647 17.5373 10.8031 17.8834C10.024 18.6269 8.99618 19.0539 7.91962 19.0812C6.84307 19.1086 5.79484 18.7344 4.97897 18.0315C4.1631 17.3286 3.63796 16.3473 3.50577 15.2785C3.37357 14.2098 3.64378 13.1301 4.2638 12.2496L9.27497 4.99213C9.59293 4.52295 10.021 4.13881 10.5217 3.87332C11.0225 3.60783 11.5806 3.46907 12.1474 3.46918H29.4931C30.0582 3.46896 30.6148 3.6068 31.1145 3.87071C31.6142 4.13462 32.0419 4.51661 32.3603 4.98346L37.3819 12.2548C38.0021 13.136 38.2719 14.2165 38.1389 15.2858C38.0059 16.3551 37.4795 17.3366 36.6624 18.039C35.8452 18.7414 34.7958 19.1144 33.7186 19.0853C32.6415 19.0563 31.6137 18.6272 30.8356 17.8817" stroke="#B89A7E" stroke-width="3.46914" stroke-linecap="round" stroke-linejoin="round"/>
<path d="M6.94116 18.9935V32.9568C6.94116 33.8769 7.30666 34.7593 7.95725 35.4099C8.60784 36.0604 9.49023 36.4259 10.4103 36.4259H31.2251C32.1452 36.4259 33.0276 36.0604 33.6782 35.4099C34.3288 34.7593 34.6942 33.8769 34.6942 32.9568V18.9935" stroke="#B89A7E" stroke-width="3.46914" stroke-linecap="round" stroke-linejoin="round"/>
</svg>
