<svg width="36" height="36" viewBox="0 0 36 36" fill="none" xmlns="http://www.w3.org/2000/svg">
<path d="M32.166 17.546H28.5399C27.9009 17.5447 27.2791 17.7526 26.7694 18.1382C26.2598 18.5237 25.8905 19.0655 25.718 19.6808L22.282 31.9043C22.2598 31.9802 22.2136 32.0469 22.1504 32.0943C22.0871 32.1418 22.0101 32.1674 21.931 32.1674C21.852 32.1674 21.775 32.1418 21.7117 32.0943C21.6485 32.0469 21.6023 31.9802 21.5801 31.9043L13.5091 3.18781C13.487 3.11188 13.4408 3.04518 13.3775 2.99773C13.3143 2.95027 13.2373 2.92462 13.1582 2.92462C13.0791 2.92462 13.0022 2.95027 12.9389 2.99773C12.8756 3.04518 12.8294 3.11188 12.8073 3.18781L9.37126 15.4113C9.19941 16.0242 8.83229 16.5642 8.32563 16.9495C7.81897 17.3348 7.20045 17.5442 6.56395 17.546H2.92322" stroke="#A89080" stroke-width="2.92428" stroke-linecap="round" stroke-linejoin="round"/>
</svg>
