<svg width="34" height="34" viewBox="0 0 34 34" fill="none" xmlns="http://www.w3.org/2000/svg">
<path d="M16.9699 31.1136C13.219 31.1136 9.62174 29.6236 6.96946 26.9713C4.31718 24.319 2.82715 20.7217 2.82715 16.9709C2.82715 13.22 4.31718 9.62271 6.96946 6.97044C9.62174 4.31816 13.219 2.82813 16.9699 2.82812C20.7208 2.82812 24.318 4.16916 26.9703 6.5562C29.6226 8.94325 31.1126 12.1808 31.1126 15.5566C31.1126 17.432 30.3676 19.2307 29.0415 20.5568C27.7153 21.8829 25.9167 22.628 24.0412 22.628H20.8591C20.3995 22.628 19.9489 22.7559 19.558 22.9976C19.167 23.2392 18.851 23.585 18.6454 23.9961C18.4399 24.4072 18.3529 24.8674 18.3942 25.3252C18.4354 25.783 18.6034 26.2202 18.8792 26.5879L19.3034 27.1536C19.5792 27.5213 19.7471 27.9586 19.7884 28.4163C19.8297 28.8741 19.7427 29.3343 19.5371 29.7455C19.3316 30.1566 19.0156 30.5023 18.6246 30.744C18.2336 30.9856 17.7831 31.1136 17.3234 31.1136H16.9699Z" stroke="#B89A7E" stroke-width="2.82855" stroke-linecap="round" stroke-linejoin="round"/>
<path d="M19.0934 9.89962C19.4839 9.89962 19.8005 9.58303 19.8005 9.19249C19.8005 8.80195 19.4839 8.48535 19.0934 8.48535C18.7028 8.48535 18.3862 8.80195 18.3862 9.19249C18.3862 9.58303 18.7028 9.89962 19.0934 9.89962Z" fill="#B89A7E" stroke="#B89A7E" stroke-width="2.82855" stroke-linecap="round" stroke-linejoin="round"/>
<path d="M24.7484 15.5569C25.1389 15.5569 25.4555 15.2403 25.4555 14.8497C25.4555 14.4592 25.1389 14.1426 24.7484 14.1426C24.3579 14.1426 24.0413 14.4592 24.0413 14.8497C24.0413 15.2403 24.3579 15.5569 24.7484 15.5569Z" fill="#B89A7E" stroke="#B89A7E" stroke-width="2.82855" stroke-linecap="round" stroke-linejoin="round"/>
<path d="M9.19249 18.386C9.58303 18.386 9.89962 18.0694 9.89962 17.6788C9.89962 17.2883 9.58303 16.9717 9.19249 16.9717C8.80195 16.9717 8.48535 17.2883 8.48535 17.6788C8.48535 18.0694 8.80195 18.386 9.19249 18.386Z" fill="#B89A7E" stroke="#B89A7E" stroke-width="2.82855" stroke-linecap="round" stroke-linejoin="round"/>
<path d="M12.0199 11.3147C12.4104 11.3147 12.727 10.9981 12.727 10.6075C12.727 10.217 12.4104 9.90039 12.0199 9.90039C11.6293 9.90039 11.3127 10.217 11.3127 10.6075C11.3127 10.9981 11.6293 11.3147 12.0199 11.3147Z" fill="#B89A7E" stroke="#B89A7E" stroke-width="2.82855" stroke-linecap="round" stroke-linejoin="round"/>
</svg>
