<svg width="35" height="35" viewBox="0 0 35 35" fill="none" xmlns="http://www.w3.org/2000/svg">
<path d="M23.2496 8.71929L11.0227 21.1961C10.4775 21.7413 10.1713 22.4806 10.1713 23.2516C10.1713 24.0226 10.4775 24.7619 11.0227 25.3071C11.5678 25.8522 12.3072 26.1585 13.0782 26.1585C13.8491 26.1585 14.5885 25.8522 15.1337 25.3071L27.3605 12.8303C28.4506 11.7402 29.0631 10.2617 29.0631 8.72001C29.0631 7.17837 28.4506 5.69986 27.3605 4.60975C26.2704 3.51964 24.7919 2.90723 23.2503 2.90723C21.7086 2.90723 20.2301 3.51964 19.14 4.60975L6.964 17.0357C6.14354 17.8429 5.49103 18.8046 5.04408 19.8652C4.59714 20.9259 4.36462 22.0645 4.35994 23.2154C4.35525 24.3664 4.57849 25.5069 5.01678 26.5711C5.45507 27.6354 6.09973 28.6023 6.91359 29.4162C7.72744 30.23 8.69438 30.8747 9.75863 31.313C10.8229 31.7513 11.9634 31.9745 13.1143 31.9698C14.2653 31.9651 15.4039 31.7326 16.4646 31.2857C17.5252 30.8387 18.4869 30.1862 19.2941 29.3658L31.4701 16.9398" stroke="#6B5D52" stroke-width="2.90632" stroke-linecap="round" stroke-linejoin="round"/>
</svg>
