<svg width="43" height="43" viewBox="0 0 43 43" fill="none" xmlns="http://www.w3.org/2000/svg">
<path d="M19.7034 38.9228C20.248 39.2372 20.8658 39.4028 21.4947 39.4028C22.1235 39.4028 22.7413 39.2372 23.2859 38.9228L35.8243 31.758C36.3684 31.4439 36.8203 30.9922 37.1347 30.4483C37.4491 29.9044 37.6149 29.2874 37.6155 28.6592V14.3295C37.6149 13.7013 37.4491 13.0843 37.1347 12.5404C36.8203 11.9965 36.3684 11.5448 35.8243 11.2307L23.2859 4.06589C22.7413 3.75147 22.1235 3.58594 21.4947 3.58594C20.8658 3.58594 20.248 3.75147 19.7034 4.06589L7.16499 11.2307C6.62093 11.5448 6.16904 11.9965 5.85465 12.5404C5.54026 13.0843 5.37442 13.7013 5.37378 14.3295V28.6592C5.37442 29.2874 5.54026 29.9044 5.85465 30.4483C6.16904 30.9922 6.62093 31.4439 7.16499 31.758L19.7034 38.9228Z" stroke="#A89080" stroke-width="3.58242" stroke-linecap="round" stroke-linejoin="round"/>
<path d="M21.4949 39.4062V21.4941" stroke="#A89080" stroke-width="3.58242" stroke-linecap="round" stroke-linejoin="round"/>
<path d="M5.89111 12.5381L21.4925 21.4941L37.094 12.5381" stroke="#A89080" stroke-width="3.58242" stroke-linecap="round" stroke-linejoin="round"/>
<path d="M13.4343 7.64844L29.5552 16.8732" stroke="#A89080" stroke-width="3.58242" stroke-linecap="round" stroke-linejoin="round"/>
</svg>
