<svg width="23" height="23" viewBox="0 0 23 23" fill="none" xmlns="http://www.w3.org/2000/svg">
<path d="M14.1688 19.8362V15.1133C14.1688 14.8628 14.0692 14.6226 13.8921 14.4454C13.7149 14.2683 13.4747 14.1687 13.2242 14.1687H9.44583C9.19532 14.1687 8.95506 14.2683 8.77791 14.4454C8.60077 14.6226 8.50125 14.8628 8.50125 15.1133V19.8362" stroke="#B6A092" stroke-width="1.66667" stroke-linecap="round" stroke-linejoin="round"/>
<path d="M16.789 9.73865C16.5921 9.55014 16.33 9.44492 16.0574 9.44492C15.7848 9.44492 15.5228 9.55014 15.3259 9.73865C14.8866 10.1576 14.303 10.3913 13.696 10.3913C13.089 10.3913 12.5053 10.1576 12.0661 9.73865C11.8692 9.55042 11.6074 9.44537 11.335 9.44537C11.0626 9.44537 10.8008 9.55042 10.6039 9.73865C10.1646 10.1579 9.58075 10.3918 8.97354 10.3918C8.36633 10.3918 7.78246 10.1579 7.34319 9.73865C7.14628 9.55014 6.8842 9.44492 6.61161 9.44492C6.33901 9.44492 6.07694 9.55014 5.88003 9.73865C5.45576 10.1435 4.89603 10.376 4.30978 10.3909C3.72353 10.4058 3.1527 10.2021 2.70841 9.81929C2.26411 9.43652 1.97814 8.90212 1.90615 8.32011C1.83416 7.73811 1.98131 7.15013 2.31895 6.67064L5.04785 2.7185C5.221 2.46301 5.45411 2.25382 5.7268 2.10924C5.99948 1.96467 6.30344 1.8891 6.61208 1.88916H16.0579C16.3657 1.88904 16.6688 1.9641 16.9409 2.10782C17.213 2.25154 17.4459 2.45955 17.6193 2.71378L20.3539 6.67347C20.6916 7.15335 20.8386 7.74177 20.7661 8.32408C20.6937 8.90638 20.407 9.44086 19.962 9.82337C19.517 10.2059 18.9456 10.409 18.359 10.3932C17.7724 10.3773 17.2127 10.1437 16.789 9.7377" stroke="#B6A092" stroke-width="1.66667" stroke-linecap="round" stroke-linejoin="round"/>
<path d="M3.77833 10.3432V17.9471C3.77833 18.4481 3.97737 18.9286 4.33166 19.2829C4.68594 19.6372 5.16646 19.8362 5.6675 19.8362H17.0025C17.5035 19.8362 17.9841 19.6372 18.3383 19.2829C18.6926 18.9286 18.8917 18.4481 18.8917 17.9471V10.3432" stroke="#B6A092" stroke-width="1.66667" stroke-linecap="round" stroke-linejoin="round"/>
</svg>
