<svg width="35" height="35" viewBox="0 0 35 35" fill="none" xmlns="http://www.w3.org/2000/svg">
<path d="M20.0981 24.0759C20.3982 24.2137 20.7363 24.2452 21.0567 24.1652C21.3771 24.0851 21.6607 23.8983 21.8608 23.6356L22.3766 22.9598C22.6473 22.5989 22.9984 22.3059 23.4019 22.1041C23.8055 21.9024 24.2505 21.7973 24.7017 21.7973H29.0612C29.832 21.7973 30.5712 22.1035 31.1162 22.6486C31.6613 23.1936 31.9675 23.9328 31.9675 24.7036V29.0631C31.9675 29.8339 31.6613 30.5731 31.1162 31.1182C30.5712 31.6632 29.832 31.9694 29.0612 31.9694C22.1239 31.9694 15.4708 29.2136 10.5655 24.3083C5.6601 19.4029 2.9043 12.7498 2.9043 5.81257C2.9043 5.04176 3.2105 4.30253 3.75554 3.75749C4.30058 3.21245 5.03981 2.90625 5.81061 2.90625H10.1701C10.9409 2.90625 11.6801 3.21245 12.2252 3.75749C12.7702 4.30253 13.0764 5.04176 13.0764 5.81257V10.172C13.0764 10.6232 12.9714 11.0682 12.7696 11.4718C12.5678 11.8753 12.2748 12.2264 11.9139 12.4971L11.2338 13.0072C10.967 13.2109 10.779 13.5006 10.7016 13.8272C10.6243 14.1539 10.6624 14.4972 10.8095 14.7989C12.7955 18.8327 16.0618 22.0949 20.0981 24.0759Z" stroke="#6B5D52" stroke-width="2.90632" stroke-linecap="round" stroke-linejoin="round"/>
</svg>
