<svg width="12" height="12" viewBox="0 0 12 12" fill="none" xmlns="http://www.w3.org/2000/svg">
<g clip-path="url(#clip0_325_2672)">
<path fill-rule="evenodd" clip-rule="evenodd" d="M11.7044 1.14346C11.817 1.03093 11.8802 0.878309 11.8802 0.719171C11.8802 0.560033 11.817 0.407413 11.7044 0.294886C11.5919 0.182358 11.4393 0.119141 11.2801 0.119141C11.121 0.119141 10.9684 0.182358 10.8559 0.294886L6.00015 5.1506L1.14443 0.294886C1.03191 0.182358 0.879286 0.119141 0.720148 0.119141C0.56101 0.119141 0.40839 0.182358 0.295862 0.294886C0.183335 0.407413 0.120117 0.560033 0.120117 0.719171C0.120117 0.878309 0.183335 1.03093 0.295862 1.14346L5.15158 5.99917L0.295862 10.8549C0.183335 10.9674 0.120117 11.12 0.120117 11.2792C0.120117 11.4383 0.183335 11.5909 0.295862 11.7035C0.40839 11.816 0.56101 11.8792 0.720148 11.8792C0.879286 11.8792 1.03191 11.816 1.14443 11.7035L6.00015 6.84774L10.8559 11.7035C10.9684 11.816 11.121 11.8792 11.2801 11.8792C11.4393 11.8792 11.5919 11.816 11.7044 11.7035C11.817 11.5909 11.8802 11.4383 11.8802 11.2792C11.8802 11.12 11.817 10.9674 11.7044 10.8549L6.84872 5.99917L11.7044 1.14346Z" fill="#E4DCD1"/>
</g>
<defs>
<clipPath id="clip0_325_2672">
<rect width="12" height="12" fill="white"/>
</clipPath>
</defs>
</svg>
