<svg width="20" height="20" viewBox="0 0 20 20" fill="none" xmlns="http://www.w3.org/2000/svg">
<path d="M16.0983 11.2501H12.8692C12.4411 11.2496 12.0304 11.419 11.727 11.7209C11.4236 12.0229 11.2524 12.4329 11.2508 12.8609V16.0901C11.2506 16.3027 11.2923 16.5132 11.3736 16.7097C11.4548 16.9061 11.574 17.0846 11.7243 17.2349C11.8747 17.3852 12.0532 17.5044 12.2496 17.5857C12.446 17.6669 12.6566 17.7086 12.8692 17.7084H16.0983C16.5262 17.7067 16.936 17.5353 17.2378 17.232C17.5396 16.9286 17.7088 16.518 17.7083 16.0901V12.8609C17.7086 12.6494 17.6671 12.44 17.5862 12.2445C17.5054 12.0491 17.3868 11.8715 17.2373 11.722C17.0877 11.5724 16.9101 11.4539 16.7147 11.373C16.5193 11.2922 16.3098 11.2507 16.0983 11.2509M7.13083 11.2501H3.90166C3.47383 11.2525 3.06434 11.4242 2.76266 11.7276C2.46099 12.0309 2.29166 12.4414 2.29166 12.8692V16.0984C2.29145 16.3099 2.33294 16.5194 2.41377 16.7148C2.4946 16.9102 2.61319 17.0878 2.76273 17.2373C2.91228 17.3869 3.08985 17.5055 3.28529 17.5863C3.48072 17.6671 3.69018 17.7086 3.90166 17.7084H7.13083C7.55873 17.7089 7.96936 17.5396 8.27271 17.2379C8.57607 16.9361 8.7474 16.5263 8.74916 16.0984V12.8692C8.74938 12.6567 8.70767 12.4461 8.62642 12.2497C8.54517 12.0532 8.42597 11.8747 8.27565 11.7244C8.12533 11.5741 7.94684 11.4549 7.7504 11.3737C7.55396 11.2924 7.34342 11.2507 7.13083 11.2509M7.13083 2.29175H3.90166C3.69018 2.29153 3.48072 2.33302 3.28529 2.41386C3.08985 2.49469 2.91228 2.61327 2.76273 2.76282C2.61319 2.91236 2.4946 3.08994 2.41377 3.28537C2.33294 3.4808 2.29145 3.69026 2.29166 3.90175V7.13092C2.29122 7.55882 2.46044 7.96944 2.76223 8.2728C3.06402 8.57615 3.47377 8.74748 3.90166 8.74925H7.13083C7.34342 8.74947 7.55396 8.70776 7.7504 8.62651C7.94684 8.54526 8.12533 8.42606 8.27565 8.27574C8.42597 8.12542 8.54517 7.94693 8.62642 7.75048C8.70767 7.55404 8.74938 7.3435 8.74916 7.13092V3.90175C8.7474 3.47385 8.57607 3.0641 8.27271 2.76231C7.96936 2.46052 7.55873 2.2913 7.13083 2.29175ZM16.0983 2.29175H12.8692C12.4413 2.2913 12.0306 2.46052 11.7273 2.76231C11.4239 3.0641 11.2526 3.47385 11.2508 3.90175V7.13092C11.2511 7.56006 11.4216 7.97156 11.7251 8.27501C12.0285 8.57845 12.44 8.74903 12.8692 8.74925H16.0983C16.5262 8.74748 16.936 8.57615 17.2378 8.2728C17.5396 7.96944 17.7088 7.55882 17.7083 7.13092V3.90175C17.7086 3.69026 17.6671 3.4808 17.5862 3.28537C17.5054 3.08994 17.3868 2.91236 17.2373 2.76282C17.0877 2.61327 16.9101 2.49469 16.7147 2.41386C16.5193 2.33302 16.3098 2.29153 16.0983 2.29175Z" stroke="#B6A092" stroke-width="1.5" stroke-linecap="round" stroke-linejoin="round"/>
</svg>
