<svg width="34" height="34" viewBox="0 0 34 34" fill="none" xmlns="http://www.w3.org/2000/svg">
<path d="M16.9709 11.3138C24.0006 11.3138 29.6994 9.41419 29.6994 7.07094C29.6994 4.7277 24.0006 2.82812 16.9709 2.82812C9.94116 2.82812 4.24243 4.7277 4.24243 7.07094C4.24243 9.41419 9.94116 11.3138 16.9709 11.3138Z" stroke="#9A8472" stroke-width="2.82855" stroke-linecap="round" stroke-linejoin="round"/>
<path d="M4.24243 7.07129V26.8711C4.24243 27.9964 5.58346 29.0756 7.97051 29.8712C10.3576 30.6669 13.5951 31.1139 16.9709 31.1139C20.3467 31.1139 23.5842 30.6669 25.9713 29.8712C28.3583 29.0756 29.6994 27.9964 29.6994 26.8711V7.07129" stroke="#9A8472" stroke-width="2.82855" stroke-linecap="round" stroke-linejoin="round"/>
<path d="M4.24243 16.9717C4.24243 18.0969 5.58346 19.1761 7.97051 19.9718C10.3576 20.7675 13.5951 21.2145 16.9709 21.2145C20.3467 21.2145 23.5842 20.7675 25.9713 19.9718C28.3583 19.1761 29.6994 18.0969 29.6994 16.9717" stroke="#9A8472" stroke-width="2.82855" stroke-linecap="round" stroke-linejoin="round"/>
</svg>
