<svg width="28" height="28" viewBox="0 0 28 28" fill="none" xmlns="http://www.w3.org/2000/svg">
<path d="M24.5801 3.11577C24.2191 2.75433 23.7904 2.4676 23.3185 2.27197C22.8465 2.07634 22.3407 1.97565 21.8298 1.97565C21.319 1.97565 20.8131 2.07634 20.3412 2.27197C19.8693 2.4676 19.4406 2.75433 19.0795 3.11577L4.45418 17.7421C4.01896 18.1773 3.70243 18.7174 3.53626 19.3109L2.00606 24.7759C1.97071 24.9026 1.96967 25.0364 2.00305 25.1636C2.03644 25.2908 2.10304 25.4069 2.19604 25.4999C2.28905 25.5929 2.4051 25.6595 2.53232 25.6928C2.65954 25.7262 2.79334 25.7252 2.92003 25.6898L8.38401 24.1596C8.97789 23.9947 9.51878 23.6784 9.95377 23.2417L24.5801 8.61537C24.9414 8.25436 25.228 7.82569 25.4236 7.35387C25.6191 6.88204 25.7198 6.37631 25.7198 5.86557C25.7198 5.35483 25.6191 4.84909 25.4236 4.37727C25.228 3.90544 24.9414 3.47678 24.5801 3.11577ZM20.129 4.16425C20.5802 3.71317 21.1922 3.4598 21.8302 3.45989C22.4682 3.45999 23.0801 3.71353 23.5312 4.16475C23.9822 4.61596 24.2356 5.22789 24.2355 5.86592C24.2354 6.50394 23.9819 7.11579 23.5307 7.56688L22.0074 9.08916L18.6057 5.68653L20.129 4.16425ZM17.5573 6.73601L20.9599 10.1386L8.9043 22.1932C8.64968 22.4495 8.33261 22.635 7.9844 22.7313L3.78948 23.9054L4.96358 19.7115C5.06115 19.3638 5.24644 19.0471 5.50167 18.7916L17.5573 6.73601Z" fill="black" fill-opacity="0.6"/>
</svg>
