<svg width="18" height="18" viewBox="0 0 18 18" fill="none" xmlns="http://www.w3.org/2000/svg">
<path d="M10.728 3.63327L12.867 5.77227M5.25 5.25027H3C2.80109 5.25027 2.61032 5.32929 2.46967 5.46994C2.32902 5.61059 2.25 5.80136 2.25 6.00027V13.5003C2.25 13.6992 2.32902 13.8899 2.46967 14.0306C2.61032 14.1713 2.80109 14.2503 3 14.2503H11.25C11.4489 14.2503 11.6397 14.1713 11.7803 14.0306C11.921 13.8899 12 13.6992 12 13.5003V10.1253M13.8068 2.69277C13.9473 2.83325 14.0588 3.00004 14.1348 3.18361C14.2109 3.36718 14.25 3.56394 14.25 3.76265C14.25 3.96135 14.2109 4.15811 14.1348 4.34168C14.0588 4.52525 13.9473 4.69204 13.8068 4.83252L8.67375 9.96552L6 10.5003L6.53475 7.82652L11.6678 2.69352C11.8081 2.55292 11.9748 2.44138 12.1583 2.36528C12.3419 2.28917 12.5386 2.25 12.7372 2.25C12.9359 2.25 13.1326 2.28917 13.3162 2.36528C13.4997 2.44138 13.6664 2.55292 13.8068 2.69352V2.69277Z" stroke="#949E96" stroke-linecap="round" stroke-linejoin="round"/>
</svg>
