<svg width="20" height="20" viewBox="0 0 20 20" fill="none" xmlns="http://www.w3.org/2000/svg">
<path d="M18.3334 5.94922V14.2826C18.3334 14.8351 18.1139 15.365 17.7232 15.7557C17.3325 16.1464 16.8026 16.3659 16.2501 16.3659H3.75008C3.19755 16.3659 2.66764 16.1464 2.27694 15.7557C1.88624 15.365 1.66675 14.8351 1.66675 14.2826V5.94922" stroke="black" stroke-width="1.4" stroke-linecap="round" stroke-linejoin="round"/>
<path d="M18.3334 5.94857C18.3334 5.39603 18.1139 4.86613 17.7232 4.47543C17.3325 4.08473 16.8026 3.86523 16.2501 3.86523H3.75008C3.19755 3.86523 2.66764 4.08473 2.27694 4.47543C1.88624 4.86613 1.66675 5.39603 1.66675 5.94857L8.89591 10.4625C9.22702 10.6694 9.60962 10.7791 10.0001 10.7791C10.3905 10.7791 10.7731 10.6694 11.1042 10.4625L18.3334 5.94857Z" stroke="black" stroke-width="1.4" stroke-linecap="round" stroke-linejoin="round"/>
</svg>
