<svg width="20" height="20" viewBox="0 0 20 20" fill="none" xmlns="http://www.w3.org/2000/svg">
<path fill-rule="evenodd" clip-rule="evenodd" d="M10 6.875C9.1712 6.875 8.37634 7.20424 7.79029 7.79029C7.20424 8.37634 6.875 9.1712 6.875 10C6.875 10.8288 7.20424 11.6237 7.79029 12.2097C8.37634 12.7958 9.1712 13.125 10 13.125C10.8288 13.125 11.6237 12.7958 12.2097 12.2097C12.7958 11.6237 13.125 10.8288 13.125 10C13.125 9.1712 12.7958 8.37634 12.2097 7.79029C11.6237 7.20424 10.8288 6.875 10 6.875ZM8.125 10C8.125 9.50272 8.32254 9.02581 8.67417 8.67417C9.02581 8.32254 9.50272 8.125 10 8.125C10.4973 8.125 10.9742 8.32254 11.3258 8.67417C11.6775 9.02581 11.875 9.50272 11.875 10C11.875 10.4973 11.6775 10.9742 11.3258 11.3258C10.9742 11.6775 10.4973 11.875 10 11.875C9.50272 11.875 9.02581 11.6775 8.67417 11.3258C8.32254 10.9742 8.125 10.4973 8.125 10Z" fill="#949E96"/>
<path fill-rule="evenodd" clip-rule="evenodd" d="M9.99984 2.70801C6.23817 2.70801 3.704 4.96134 2.23317 6.87217L2.20734 6.90634C1.874 7.33884 1.56817 7.73634 1.36067 8.20634C1.13817 8.71051 1.0415 9.25967 1.0415 9.99967C1.0415 10.7397 1.13817 11.2888 1.36067 11.793C1.569 12.263 1.87484 12.6613 2.20734 13.093L2.234 13.1272C3.704 15.038 6.23817 17.2913 9.99984 17.2913C13.7615 17.2913 16.2957 15.038 17.7665 13.1272L17.7923 13.093C18.1257 12.6613 18.4315 12.263 18.639 11.793C18.8615 11.2888 18.9582 10.7397 18.9582 9.99967C18.9582 9.25967 18.8615 8.71051 18.639 8.20634C18.4307 7.73634 18.1248 7.33884 17.7923 6.90634L17.7657 6.87217C16.2957 4.96134 13.7615 2.70801 9.99984 2.70801ZM3.22484 7.63467C4.5815 5.87051 6.7915 3.95801 9.99984 3.95801C13.2082 3.95801 15.4173 5.87051 16.7748 7.63467C17.1415 8.10967 17.3548 8.39301 17.4957 8.71134C17.6273 9.00967 17.7082 9.37384 17.7082 9.99967C17.7082 10.6255 17.6273 10.9897 17.4957 11.288C17.3548 11.6063 17.1407 11.8897 16.7757 12.3647C15.4165 14.1288 13.2082 16.0413 9.99984 16.0413C6.7915 16.0413 4.58234 14.1288 3.22484 12.3647C2.85817 11.8897 2.64484 11.6063 2.504 11.288C2.37234 10.9897 2.2915 10.6255 2.2915 9.99967C2.2915 9.37384 2.37234 9.00967 2.504 8.71134C2.64484 8.39301 2.85984 8.10967 3.22484 7.63467Z" fill="#949E96"/>
</svg>
