<svg width="35" height="35" viewBox="0 0 35 35" fill="none" xmlns="http://www.w3.org/2000/svg">
<path d="M16.7487 3.33478C16.8124 3.20612 16.9108 3.09781 17.0328 3.02209C17.1547 2.94637 17.2954 2.90625 17.439 2.90625C17.5825 2.90625 17.7233 2.94637 17.8452 3.02209C17.9672 3.09781 18.0656 3.20612 18.1292 3.33478L21.486 10.1341C21.7072 10.5816 22.0336 10.9688 22.4373 11.2624C22.841 11.556 23.3099 11.7473 23.8038 11.8198L31.3108 12.9184C31.4531 12.939 31.5867 12.999 31.6966 13.0916C31.8066 13.1842 31.8884 13.3057 31.9328 13.4424C31.9773 13.5791 31.9826 13.7255 31.9482 13.865C31.9138 14.0045 31.841 14.1317 31.7381 14.232L26.3091 19.5186C25.951 19.8675 25.6832 20.2982 25.5285 20.7736C25.3738 21.249 25.337 21.7549 25.4212 22.2476L26.7029 29.7169C26.728 29.8591 26.7126 30.0054 26.6586 30.1393C26.6045 30.2732 26.5139 30.3891 26.3971 30.474C26.2802 30.5588 26.1419 30.6091 25.9979 30.6191C25.8539 30.6292 25.7099 30.5985 25.5825 30.5306L18.8718 27.0024C18.4296 26.7702 17.9377 26.6489 17.4383 26.6489C16.9388 26.6489 16.4469 26.7702 16.0047 27.0024L9.29549 30.5306C9.16809 30.5981 9.02432 30.6284 8.88054 30.6182C8.73675 30.608 8.59872 30.5576 8.48215 30.4728C8.36557 30.3881 8.27513 30.2723 8.2211 30.1386C8.16708 30.005 8.15164 29.8589 8.17655 29.7169L9.45679 22.2491C9.54136 21.7561 9.50472 21.2499 9.35004 20.7742C9.19535 20.2985 8.92727 19.8676 8.56891 19.5186L3.13991 14.2335C3.03614 14.1332 2.96261 14.0059 2.92769 13.8659C2.89277 13.726 2.89786 13.579 2.94239 13.4418C2.98692 13.3046 3.06909 13.1826 3.17954 13.0898C3.29 12.997 3.42429 12.9371 3.56713 12.9169L11.0727 11.8198C11.5671 11.7478 12.0367 11.5568 12.441 11.2632C12.8452 10.9696 13.1721 10.5821 13.3934 10.1341L16.7487 3.33478Z" stroke="#6B5D52" stroke-width="2.90632" stroke-linecap="round" stroke-linejoin="round"/>
</svg>
