<svg width="19" height="19" viewBox="0 0 19 19" fill="none" xmlns="http://www.w3.org/2000/svg">
<path d="M9.84961 0.394531C13.4447 0.394531 15.2424 0.394336 16.5371 1.25098C17.1153 1.63353 17.6106 2.12887 17.9932 2.70703C18.8498 4.00176 18.8496 5.79946 18.8496 9.39453C18.8496 12.9896 18.8498 14.7873 17.9932 16.082C17.6106 16.6602 17.1153 17.1555 16.5371 17.5381C15.2424 18.3947 13.4447 18.3945 9.84961 18.3945C6.25454 18.3945 4.45684 18.3947 3.16211 17.5381C2.58395 17.1555 2.08861 16.6602 1.70605 16.082C0.849414 14.7873 0.849609 12.9896 0.849609 9.39453C0.849609 5.79946 0.849414 4.00176 1.70605 2.70703C2.08861 2.12887 2.58395 1.63353 3.16211 1.25098C4.45684 0.394336 6.25454 0.394531 9.84961 0.394531ZM9.84961 4.73535C7.27636 4.73535 5.19055 6.82132 5.19043 9.39453C5.19043 11.9679 7.27629 14.0537 9.84961 14.0537C12.4229 14.0536 14.5088 11.9678 14.5088 9.39453C14.5087 6.82137 12.4228 4.73544 9.84961 4.73535ZM9.84961 6.31152C11.5522 6.31161 12.9325 7.69199 12.9326 9.39453C12.9326 11.0972 11.5522 12.4775 9.84961 12.4775C8.14691 12.4775 6.7666 11.0972 6.7666 9.39453C6.76672 7.69194 8.14699 6.31152 9.84961 6.31152ZM14.6934 3.40625C14.0888 3.40625 13.5978 3.89645 13.5977 4.50098C13.5977 5.10563 14.0887 5.5957 14.6934 5.5957C15.2978 5.59545 15.7881 5.10547 15.7881 4.50098C15.7879 3.89661 15.2977 3.40651 14.6934 3.40625Z" fill="#B6A092"/>
</svg>
