<svg width="20" height="20" viewBox="0 0 20 20" fill="none" xmlns="http://www.w3.org/2000/svg">
<path d="M16.8607 8.95557C16.8607 14.3344 11.3515 17.6482 10.2066 18.2793C10.1432 18.3143 10.0719 18.3327 9.99949 18.3327C9.92706 18.3327 9.85581 18.3143 9.79238 18.2793C8.64664 17.6482 3.13916 14.3344 3.13916 8.95557C3.13916 4.6676 5.71195 1.66602 9.99992 1.66602C14.2879 1.66602 16.8607 4.6676 16.8607 8.95557Z" stroke="black" stroke-width="1.4" stroke-linecap="round" stroke-linejoin="round"/>
<path d="M6.56958 8.52804C6.56958 9.43783 6.93099 10.3104 7.57432 10.9537C8.21764 11.597 9.09017 11.9584 9.99996 11.9584C10.9098 11.9584 11.7823 11.597 12.4256 10.9537C13.0689 10.3104 13.4303 9.43783 13.4303 8.52804C13.4303 7.61824 13.0689 6.74571 12.4256 6.10239C11.7823 5.45907 10.9098 5.09766 9.99996 5.09766C9.09017 5.09766 8.21764 5.45907 7.57432 6.10239C6.93099 6.74571 6.56958 7.61824 6.56958 8.52804V8.52804Z" stroke="black" stroke-width="1.4" stroke-linecap="round" stroke-linejoin="round"/>
</svg>
