<svg width="36" height="36" viewBox="0 0 36 36" fill="none" xmlns="http://www.w3.org/2000/svg">
<path d="M29.2433 14.621C29.2433 21.9214 21.1445 29.5246 18.4249 31.8728C18.1715 32.0633 17.8631 32.1663 17.5461 32.1663C17.2291 32.1663 16.9207 32.0633 16.6674 31.8728C13.9478 29.5246 5.849 21.9214 5.849 14.621C5.849 11.5187 7.08137 8.54347 9.27501 6.34984C11.4686 4.1562 14.4439 2.92383 17.5461 2.92383C20.6484 2.92383 23.6236 4.1562 25.8172 6.34984C28.0109 8.54347 29.2433 11.5187 29.2433 14.621Z" stroke="#A89080" stroke-width="2.92428" stroke-linecap="round" stroke-linejoin="round"/>
<path d="M17.545 19.008C19.9675 19.008 21.9314 17.0441 21.9314 14.6215C21.9314 12.199 19.9675 10.2351 17.545 10.2351C15.1224 10.2351 13.1586 12.199 13.1586 14.6215C13.1586 17.0441 15.1224 19.008 17.545 19.008Z" stroke="#A89080" stroke-width="2.92428" stroke-linecap="round" stroke-linejoin="round"/>
</svg>
