<svg width="35" height="35" viewBox="0 0 35 35" fill="none" xmlns="http://www.w3.org/2000/svg">
<path d="M17.4368 18.8912C18.2394 18.8912 18.89 18.2406 18.89 17.438C18.89 16.6355 18.2394 15.9849 17.4368 15.9849C16.6342 15.9849 15.9836 16.6355 15.9836 17.438C15.9836 18.2406 16.6342 18.8912 17.4368 18.8912Z" stroke="#6B5D52" stroke-width="2.90632" stroke-linecap="round" stroke-linejoin="round"/>
<path d="M17.4368 8.71882C18.2394 8.71882 18.89 8.06822 18.89 7.26566C18.89 6.4631 18.2394 5.8125 17.4368 5.8125C16.6342 5.8125 15.9836 6.4631 15.9836 7.26566C15.9836 8.06822 16.6342 8.71882 17.4368 8.71882Z" stroke="#6B5D52" stroke-width="2.90632" stroke-linecap="round" stroke-linejoin="round"/>
<path d="M17.4368 29.0631C18.2394 29.0631 18.89 28.4125 18.89 27.6099C18.89 26.8073 18.2394 26.1567 17.4368 26.1567C16.6342 26.1567 15.9836 26.8073 15.9836 27.6099C15.9836 28.4125 16.6342 29.0631 17.4368 29.0631Z" stroke="#6B5D52" stroke-width="2.90632" stroke-linecap="round" stroke-linejoin="round"/>
</svg>
