<svg width="36" height="36" viewBox="0 0 36 36" fill="none" xmlns="http://www.w3.org/2000/svg">
<path d="M23.3924 30.7047V27.7804C23.3924 26.2293 22.7762 24.7417 21.6794 23.6449C20.5826 22.5481 19.095 21.9319 17.5438 21.9319H8.77099C7.21985 21.9319 5.73225 22.5481 4.63543 23.6449C3.53861 24.7417 2.92242 26.2293 2.92242 27.7804V30.7047" stroke="#C4A88A" stroke-width="2.92428" stroke-linecap="round" stroke-linejoin="round"/>
<path d="M13.1574 16.0834C16.3875 16.0834 19.006 13.4649 19.006 10.2348C19.006 7.00472 16.3875 4.38623 13.1574 4.38623C9.92733 4.38623 7.30884 7.00472 7.30884 10.2348C7.30884 13.4649 9.92733 16.0834 13.1574 16.0834Z" stroke="#C4A88A" stroke-width="2.92428" stroke-linecap="round" stroke-linejoin="round"/>
<path d="M27.7811 11.6968V20.4696" stroke="#C4A88A" stroke-width="2.92428" stroke-linecap="round" stroke-linejoin="round"/>
<path d="M32.1675 16.083H23.3947" stroke="#C4A88A" stroke-width="2.92428" stroke-linecap="round" stroke-linejoin="round"/>
</svg>
