<svg width="33" height="33" viewBox="0 0 33 33" fill="none" xmlns="http://www.w3.org/2000/svg">
<path fill-rule="evenodd" clip-rule="evenodd" d="M14.2399 7.07219C13.3986 7.29981 12.6128 7.65613 12.0654 8.14929C10.571 9.49736 9.9627 11.3237 9.9627 14.6159C9.9627 16.9625 8.62682 19.1845 7.66489 20.6233C7.45624 20.9376 7.39121 21.237 7.40341 21.4172C7.40882 21.4985 7.42779 21.5365 7.43592 21.55C7.44134 21.5595 7.4576 21.5852 7.52263 21.6205C8.46018 22.1217 9.87463 22.4875 11.5099 22.7192C13.084 22.9305 14.6705 23.035 16.2586 23.0322C16.618 23.0322 16.9626 23.1749 17.2166 23.429C17.4707 23.6831 17.6135 24.0277 17.6135 24.387C17.6135 24.7464 17.4707 25.091 17.2166 25.3451C16.9626 25.5991 16.618 25.7419 16.2586 25.7419C14.7304 25.7419 12.8932 25.6538 11.1292 25.4032C9.39231 25.1552 7.60257 24.7352 6.24502 24.0104C5.2465 23.4766 4.76418 22.5472 4.7005 21.6001C4.63818 20.7073 4.94031 19.8253 5.41179 19.1194C6.38321 17.6643 7.25302 16.0588 7.25302 14.6159C7.25302 11.0107 7.9196 8.23871 10.2513 6.13736C11.2335 5.25129 12.4678 4.74594 13.5286 4.45736C14.4182 4.21067 15.3356 4.07863 16.2586 4.06445C16.618 4.06445 16.9626 4.20719 17.2166 4.46128C17.4707 4.71536 17.6135 5.05997 17.6135 5.41929C17.6135 5.77862 17.4707 6.12323 17.2166 6.37731C16.9626 6.63139 16.618 6.77413 16.2586 6.77413C15.8441 6.77413 15.0718 6.84458 14.2399 7.07219Z" fill="#C9A390"/>
<path fill-rule="evenodd" clip-rule="evenodd" d="M18.2776 7.07219C19.119 7.29981 19.9048 7.65613 20.4521 8.14929C21.9465 9.49736 22.5548 11.3237 22.5548 14.6159C22.5548 16.9625 23.8907 19.1845 24.8526 20.6233C25.0613 20.9376 25.1263 21.237 25.1141 21.4172C25.1148 21.4635 25.1036 21.5093 25.0816 21.55C25.0762 21.5595 25.0599 21.5852 24.9949 21.6205C24.0573 22.1217 22.6429 22.4875 21.0076 22.7192C19.4336 22.9305 17.847 23.035 16.2589 23.0322C15.8996 23.0322 15.555 23.1749 15.3009 23.429C15.0468 23.6831 14.9041 24.0277 14.9041 24.387C14.9041 24.7464 15.0468 25.091 15.3009 25.3451C15.555 25.5991 15.8996 25.7419 16.2589 25.7419C17.7871 25.7419 19.623 25.6538 21.3883 25.4032C23.1252 25.1552 24.915 24.7352 26.2725 24.0104C27.271 23.4766 27.7533 22.5472 27.817 21.6001C27.8793 20.7073 27.5772 19.8253 27.1057 19.1194C26.1343 17.6643 25.2645 16.0588 25.2645 14.6159C25.2645 11.0107 24.5979 8.23871 22.2662 6.13736C21.284 5.25129 20.0497 4.74594 18.9889 4.45736C18.0993 4.21067 17.1819 4.07863 16.2589 4.06445C15.8996 4.06445 15.555 4.20719 15.3009 4.46128C15.0468 4.71536 14.9041 5.05997 14.9041 5.41929C14.9041 5.77862 15.0468 6.12323 15.3009 6.37731C15.555 6.63139 15.8996 6.77413 16.2589 6.77413C16.6735 6.77413 17.4457 6.84458 18.2776 7.07219Z" fill="#C9A390"/>
<path d="M19.8443 4.98511C19.8443 5.92673 17.9529 5.04202 16.4572 5.04202C14.9614 5.04202 13.0701 5.92673 13.0701 4.98376C13.0701 4.04215 14.4249 2.70898 16.4572 2.70898C18.4894 2.70898 19.8443 4.04215 19.8443 4.98511Z" fill="#C9A390"/>
<path fill-rule="evenodd" clip-rule="evenodd" d="M13.549 24.3867C13.549 25.1054 13.8345 25.7946 14.3427 26.3027C14.8508 26.8109 15.5401 27.0964 16.2587 27.0964C16.9774 27.0964 17.6666 26.8109 18.1747 26.3027C18.6829 25.7946 18.9684 25.1054 18.9684 24.3867H21.6781C21.6781 25.824 21.1071 27.2025 20.0908 28.2188C19.0744 29.2351 17.696 29.8061 16.2587 29.8061C14.8214 29.8061 13.443 29.2351 12.4266 28.2188C11.4103 27.2025 10.8394 25.824 10.8394 24.3867H13.549Z" fill="#C9A390"/>
</svg>
