<svg width="35" height="35" viewBox="0 0 35 35" fill="none" xmlns="http://www.w3.org/2000/svg">
<path d="M30.515 4.35938H4.35819C3.55563 4.35938 2.90503 5.00998 2.90503 5.81253V10.172C2.90503 10.9746 3.55563 11.6252 4.35819 11.6252H30.515C31.3176 11.6252 31.9682 10.9746 31.9682 10.172V5.81253C31.9682 5.00998 31.3176 4.35938 30.515 4.35938Z" stroke="#6B5D52" stroke-width="2.90632" stroke-linecap="round" stroke-linejoin="round"/>
<path d="M5.81372 11.6255V27.6102C5.81372 28.381 6.11992 29.1203 6.66496 29.6653C7.21 30.2104 7.94924 30.5166 8.72004 30.5166H26.1579C26.9287 30.5166 27.668 30.2104 28.213 29.6653C28.7581 29.1203 29.0643 28.381 29.0643 27.6102V11.6255" stroke="#6B5D52" stroke-width="2.90632" stroke-linecap="round" stroke-linejoin="round"/>
<path d="M14.5327 17.438H20.3454" stroke="#6B5D52" stroke-width="2.90632" stroke-linecap="round" stroke-linejoin="round"/>
</svg>
