<svg width="35" height="35" viewBox="0 0 35 35" fill="none" xmlns="http://www.w3.org/2000/svg">
<path d="M21.1213 31.5129C21.1765 31.6505 21.2725 31.7679 21.3963 31.8493C21.5202 31.9308 21.666 31.9724 21.8142 31.9686C21.9624 31.9648 22.1059 31.9158 22.2255 31.8281C22.345 31.7404 22.4348 31.6182 22.4829 31.478L31.9284 3.86796C31.975 3.73921 31.9838 3.59986 31.954 3.46624C31.9242 3.33263 31.857 3.21025 31.7602 3.11345C31.6634 3.01665 31.541 2.94942 31.4074 2.91962C31.2738 2.88983 31.1345 2.8987 31.0057 2.94521L3.39567 12.3907C3.25543 12.4388 3.13327 12.5287 3.04556 12.6482C2.95786 12.7677 2.90882 12.9112 2.90502 13.0594C2.90123 13.2076 2.94286 13.3534 3.02433 13.4773C3.1058 13.6012 3.2232 13.6971 3.36079 13.7524L14.8843 18.3734C15.2486 18.5192 15.5796 18.7374 15.8573 19.0146C16.135 19.2918 16.3538 19.6224 16.5003 19.9864L21.1213 31.5129Z" stroke="white" stroke-width="2.90632" stroke-linecap="round" stroke-linejoin="round"/>
<path d="M31.7582 3.12012L15.8606 19.0162" stroke="white" stroke-width="2.90632" stroke-linecap="round" stroke-linejoin="round"/>
</svg>
