<svg width="22" height="22" viewBox="0 0 22 22" fill="none" xmlns="http://www.w3.org/2000/svg">
<path d="M18.2298 11.4868L19.4728 12.5937C19.7023 12.7852 19.8557 13.0526 19.9051 13.3475C19.9545 13.6423 19.8968 13.9451 19.7423 14.201L18.2435 16.7613C18.1272 16.9573 17.9612 17.119 17.7623 17.2302C17.561 17.3415 17.335 17.4006 17.105 17.402C16.9623 17.4029 16.8204 17.3816 16.6843 17.3388L15.0934 16.8135C14.8147 16.9923 14.525 17.1522 14.2244 17.2934L13.8903 18.9063C13.8284 19.203 13.6632 19.4681 13.4241 19.6543C13.182 19.8438 12.8818 19.9439 12.5744 19.9375H9.471C9.16357 19.9439 8.86338 19.8438 8.62125 19.6543C8.38266 19.4678 8.21797 19.2028 8.1565 18.9063L7.821 17.2934C7.52428 17.1504 7.23638 16.9897 6.95888 16.8122L5.3625 17.3388C5.22638 17.3816 5.08443 17.4029 4.94175 17.402C4.71221 17.4004 4.48673 17.3413 4.28588 17.2302C4.0871 17.1194 3.92109 16.9581 3.80463 16.7627L2.25225 14.201C2.09086 13.9428 2.0292 13.6346 2.07881 13.3341C2.12842 13.0336 2.28591 12.7616 2.52175 12.5689L3.76338 11V10.5133L2.52038 9.40642C2.29084 9.21487 2.13747 8.94747 2.08803 8.65263C2.0386 8.35778 2.09636 8.05498 2.25088 7.79904L3.80325 5.23879C3.91953 5.04281 4.08555 4.88105 4.2845 4.76992C4.48535 4.65878 4.71083 4.59969 4.94038 4.59804C5.08177 4.58912 5.2237 4.60211 5.36113 4.63654L6.92588 5.18654C7.20546 5.00779 7.49513 4.84783 7.79488 4.70667L8.13038 3.09379C8.19185 2.7973 8.35653 2.53224 8.59513 2.34579C8.83725 2.15624 9.13744 2.05618 9.44488 2.06254H12.5221C12.8296 2.05618 13.1297 2.15624 13.3719 2.34579C13.6125 2.53417 13.7775 2.79954 13.8366 3.09379L14.1721 4.70667C14.47 4.84875 14.7574 5.00917 15.0343 5.18792L16.632 4.66267C16.8093 4.60498 16.9967 4.58473 17.1823 4.60319C17.3678 4.62165 17.5475 4.67842 17.71 4.76992C17.9094 4.88267 18.0744 5.04492 18.1913 5.23742L19.7423 7.79904C19.9058 8.0551 19.9706 8.36192 19.9246 8.66224C19.8785 8.96257 19.7248 9.23588 19.492 9.43117L18.2298 10.5064V11.4868Z" stroke="#B6A092"/>
<path d="M14.4375 11C14.4375 11.9117 14.0753 12.786 13.4307 13.4307C12.786 14.0753 11.9117 14.4375 11 14.4375C10.0883 14.4375 9.21398 14.0753 8.56932 13.4307C7.92466 12.786 7.5625 11.9117 7.5625 11C7.5625 10.0883 7.92466 9.21398 8.56932 8.56932C9.21398 7.92466 10.0883 7.5625 11 7.5625C11.9117 7.5625 12.786 7.92466 13.4307 8.56932C14.0753 9.21398 14.4375 10.0883 14.4375 11Z" stroke="#B6A092"/>
</svg>
