<svg width="16" height="16" viewBox="0 0 16 16" fill="none" xmlns="http://www.w3.org/2000/svg">
<path d="M7.99992 1.33301C11.6819 1.33301 14.6666 4.31767 14.6666 7.99967C14.6666 11.6817 11.6819 14.6663 7.99992 14.6663C4.31792 14.6663 1.33325 11.6817 1.33325 7.99967C1.33325 4.31767 4.31792 1.33301 7.99992 1.33301ZM7.99992 2.66634C6.58543 2.66634 5.22888 3.22824 4.22868 4.22844C3.22849 5.22863 2.66659 6.58519 2.66659 7.99967C2.66659 9.41416 3.22849 10.7707 4.22868 11.7709C5.22888 12.7711 6.58543 13.333 7.99992 13.333C9.41441 13.333 10.771 12.7711 11.7712 11.7709C12.7713 10.7707 13.3333 9.41416 13.3333 7.99967C13.3333 6.58519 12.7713 5.22863 11.7712 4.22844C10.771 3.22824 9.41441 2.66634 7.99992 2.66634ZM7.99992 3.99967C8.16321 3.9997 8.32081 4.05964 8.44283 4.16815C8.56486 4.27666 8.64281 4.42617 8.66192 4.58834L8.66658 4.66634V7.72367L10.4713 9.52834C10.5908 9.64831 10.6602 9.8093 10.6654 9.9786C10.6706 10.1479 10.6111 10.3128 10.4991 10.4399C10.3871 10.5669 10.2309 10.6465 10.0623 10.6626C9.89365 10.6787 9.72525 10.6299 9.59125 10.5263L9.52858 10.471L7.52858 8.47101C7.42497 8.36731 7.35843 8.23234 7.33925 8.08701L7.33325 7.99967V4.66634C7.33325 4.48953 7.40349 4.31996 7.52851 4.19494C7.65354 4.06991 7.82311 3.99967 7.99992 3.99967Z" fill="black"/>
</svg>
