<svg width="23" height="23" viewBox="0 0 23 23" fill="none" xmlns="http://www.w3.org/2000/svg">
<path d="M15.1133 19.8362V17.9471C15.1133 16.945 14.7153 15.984 14.0067 15.2754C13.2981 14.5668 12.3371 14.1687 11.335 14.1687H5.6675C4.66542 14.1687 3.70439 14.5668 2.99582 15.2754C2.28724 15.984 1.88917 16.945 1.88917 17.9471V19.8362" stroke="#B6A092" stroke-width="1.66667" stroke-linecap="round" stroke-linejoin="round"/>
<path d="M15.1133 2.95467C15.9236 3.16471 16.6411 3.63785 17.1533 4.29981C17.6656 4.96177 17.9435 5.77509 17.9435 6.61209C17.9435 7.4491 17.6656 8.26241 17.1533 8.92437C16.6411 9.58634 15.9236 10.0595 15.1133 10.2695" stroke="#B6A092" stroke-width="1.66667" stroke-linecap="round" stroke-linejoin="round"/>
<path d="M20.7808 19.8363V17.9471C20.7802 17.1099 20.5016 16.2967 19.9887 15.635C19.4758 14.9734 18.7577 14.5008 17.9471 14.2915" stroke="#B6A092" stroke-width="1.66667" stroke-linecap="round" stroke-linejoin="round"/>
<path d="M8.50125 10.3904C10.588 10.3904 12.2796 8.6988 12.2796 6.61209C12.2796 4.52537 10.588 2.83376 8.50125 2.83376C6.41453 2.83376 4.72292 4.52537 4.72292 6.61209C4.72292 8.6988 6.41453 10.3904 8.50125 10.3904Z" stroke="#B6A092" stroke-width="1.66667" stroke-linecap="round" stroke-linejoin="round"/>
</svg>
