<svg width="42" height="42" viewBox="0 0 42 42" fill="none" xmlns="http://www.w3.org/2000/svg">
<path d="M27.7546 36.426V32.9568C27.7546 31.1167 27.0236 29.3519 25.7224 28.0507C24.4212 26.7496 22.6564 26.0186 20.8163 26.0186H10.4089C8.56874 26.0186 6.80396 26.7496 5.50278 28.0507C4.20161 29.3519 3.47061 31.1167 3.47061 32.9568V36.426" stroke="#C4A88A" stroke-width="3.46914" stroke-linecap="round" stroke-linejoin="round"/>
<path d="M27.7558 5.42569C29.2436 5.81141 30.5612 6.68024 31.5019 7.89582C32.4425 9.11141 32.9529 10.6049 32.9529 12.1419C32.9529 13.679 32.4425 15.1725 31.5019 16.3881C30.5612 17.6036 29.2436 18.4725 27.7558 18.8582" stroke="#C4A88A" stroke-width="3.46914" stroke-linecap="round" stroke-linejoin="round"/>
<path d="M38.1627 36.4257V32.9566C38.1616 31.4193 37.6499 29.9259 36.7081 28.7109C35.7662 27.4959 34.4475 26.6282 32.959 26.2438" stroke="#C4A88A" stroke-width="3.46914" stroke-linecap="round" stroke-linejoin="round"/>
<path d="M15.6122 19.0803C19.4441 19.0803 22.5504 15.9739 22.5504 12.142C22.5504 8.31014 19.4441 5.20377 15.6122 5.20377C11.7803 5.20377 8.67389 8.31014 8.67389 12.142C8.67389 15.9739 11.7803 19.0803 15.6122 19.0803Z" stroke="#C4A88A" stroke-width="3.46914" stroke-linecap="round" stroke-linejoin="round"/>
</svg>
