<svg width="35" height="35" viewBox="0 0 35 35" fill="none" xmlns="http://www.w3.org/2000/svg">
<path d="M23.251 18.891L30.8408 23.9509C30.9502 24.0237 31.0774 24.0655 31.2086 24.0717C31.3399 24.078 31.4704 24.0486 31.5863 23.9865C31.7022 23.9245 31.799 23.8322 31.8666 23.7195C31.9341 23.6067 31.9699 23.4778 31.9699 23.3464V11.4363C31.97 11.3084 31.9363 11.1828 31.8722 11.0722C31.8082 10.9615 31.7161 10.8697 31.6053 10.806C31.4944 10.7423 31.3687 10.709 31.2409 10.7095C31.113 10.7099 30.9876 10.7441 30.8772 10.8085L23.251 15.2581" stroke="#6B5D52" stroke-width="2.90632" stroke-linecap="round" stroke-linejoin="round"/>
<path d="M20.3424 8.71875H5.81086C4.20574 8.71875 2.90454 10.02 2.90454 11.6251V23.2503C2.90454 24.8555 4.20574 26.1567 5.81086 26.1567H20.3424C21.9476 26.1567 23.2488 24.8555 23.2488 23.2503V11.6251C23.2488 10.02 21.9476 8.71875 20.3424 8.71875Z" stroke="#6B5D52" stroke-width="2.90632" stroke-linecap="round" stroke-linejoin="round"/>
</svg>
