<svg width="42" height="42" viewBox="0 0 42 42" fill="none" xmlns="http://www.w3.org/2000/svg">
<path d="M27.7525 17.3459C27.7525 19.186 27.0215 20.9508 25.7203 22.252C24.4192 23.5531 22.6544 24.2841 20.8142 24.2841C18.9741 24.2841 17.2093 23.5531 15.9081 22.252C14.607 20.9508 13.876 19.186 13.876 17.3459" stroke="#A89080" stroke-width="3.46914" stroke-linecap="round" stroke-linejoin="round"/>
<path d="M5.38171 10.4662H36.2466" stroke="#A89080" stroke-width="3.46914" stroke-linecap="round" stroke-linejoin="round"/>
<path d="M5.89646 9.48292C5.44609 10.0834 5.20264 10.8138 5.20264 11.5644V34.6914C5.20264 35.6115 5.56813 36.4939 6.21872 37.1444C6.86931 37.795 7.7517 38.1605 8.67177 38.1605H32.9557C33.8758 38.1605 34.7582 37.795 35.4088 37.1444C36.0594 36.4939 36.4249 35.6115 36.4249 34.6914V11.5644C36.4249 10.8138 36.1814 10.0834 35.731 9.48292L32.2619 4.85683C31.9388 4.42598 31.5197 4.07628 31.038 3.83542C30.5563 3.59457 30.0252 3.46918 29.4866 3.46918H12.1409C11.6023 3.46918 11.0712 3.59457 10.5895 3.83542C10.1078 4.07628 9.68874 4.42598 9.3656 4.85683L5.89646 9.48292Z" stroke="#A89080" stroke-width="3.46914" stroke-linecap="round" stroke-linejoin="round"/>
</svg>
